<svg width="76" height="52" viewBox="0 0 76 52" fill="none" xmlns="http://www.w3.org/2000/svg">
<g clip-path="url(#clip0_397_8811)" filter="url(#filter0_d_397_8811)">
<path d="M12 42C9.79086 42 8 40.2091 8 38V10C8 7.79086 9.79086 6 12 6H64C66.2091 6 68 7.79086 68 10V38C68 40.2091 66.2091 42 64 42H12Z" fill="#FECC00"/>
<path d="M27.3453 23.0973C27.0831 23.4459 26.6444 24.0519 26.3775 24.4058C26.2419 24.5858 25.9971 24.9126 26.8086 24.9126C27.6672 24.9126 31.0812 24.9126 31.0812 24.9126C31.0812 24.9126 31.7698 23.9929 32.3471 23.2237C33.1323 22.1773 32.4151 20 29.6078 20C27.0951 20 18.5519 20 18.5519 20L16.635 22.557C16.635 22.557 26.5727 22.557 27.0828 22.557C27.6102 22.557 27.6031 22.7541 27.3453 23.0973ZM24.2065 25.5434C23.395 25.5434 23.6398 25.216 23.7753 25.036C24.0423 24.682 24.4882 24.0824 24.7503 23.7338C25.0084 23.3906 25.0153 23.1935 24.4871 23.1935C23.9774 23.1935 19.7089 23.1935 19.7089 23.1935L15.859 28.3304C15.859 28.3304 22.7351 28.3304 25.2478 28.3304C28.3487 28.3304 30.0751 26.2597 30.6074 25.5438C30.6074 25.5434 25.0648 25.5434 24.2065 25.5434ZM30.3141 28.3304H35.8219L37.9099 25.5431L32.4028 25.5438C32.4011 25.5434 30.3141 28.3304 30.3141 28.3304ZM44.5248 20L42.4122 22.8171H39.9542L42.0657 20H36.5596L32.876 24.9126H46.3475L50.0302 20H44.5248ZM38.2799 28.3304H43.7857L45.8747 25.5438H40.369C40.3669 25.5434 38.2799 28.3304 38.2799 28.3304ZM8 26.6428V27.2347H15.6705L16.1137 26.6428H8ZM16.9381 25.5434H8V26.1347H16.494L16.9381 25.5434ZM8 28.3304H14.8488L15.2899 27.7418H8V28.3304ZM59.9171 27.2344H68V26.6424H60.3609L59.9171 27.2344ZM59.096 28.3304H68V27.7418H59.5367L59.096 28.3304ZM61.184 25.5434L60.7412 26.1353H68V25.5434H61.184ZM53.9723 24.9126L57.6556 20H51.8242C51.8222 20 48.1382 24.9126 48.1382 24.9126H53.9723ZM47.666 25.5434C47.666 25.5434 47.2635 26.0834 47.0679 26.3435C46.3765 27.2605 46.988 28.3304 49.2446 28.3304C51.8515 28.3304 58.0872 28.3304 58.0872 28.3304L60.1762 25.5438L47.666 25.5434Z" fill="#D50029"/>
</g>
<defs>
<filter id="filter0_d_397_8811" x="0" y="0" width="76" height="52" filterUnits="userSpaceOnUse" color-interpolation-filters="sRGB">
<feFlood flood-opacity="0" result="BackgroundImageFix"/>
<feColorMatrix in="SourceAlpha" type="matrix" values="0 0 0 0 0 0 0 0 0 0 0 0 0 0 0 0 0 0 127 0" result="hardAlpha"/>
<feOffset dy="2"/>
<feGaussianBlur stdDeviation="4"/>
<feComposite in2="hardAlpha" operator="out"/>
<feColorMatrix type="matrix" values="0 0 0 0 0 0 0 0 0 0 0 0 0 0 0 0 0 0 0.1 0"/>
<feBlend mode="normal" in2="BackgroundImageFix" result="effect1_dropShadow_397_8811"/>
<feBlend mode="normal" in="SourceGraphic" in2="effect1_dropShadow_397_8811" result="shape"/>
</filter>
<clipPath id="clip0_397_8811">
<rect width="60" height="36" fill="white" transform="translate(8 6)"/>
</clipPath>
</defs>
</svg>
