<svg width="76" height="52" viewBox="0 0 76 52" fill="none" xmlns="http://www.w3.org/2000/svg">
<g filter="url(#filter0_d_397_8919)">
<rect x="8" y="6" width="60" height="36" rx="4" fill="white"/>
<path d="M32.8003 21.082H30.5674C30.4146 21.082 30.2847 21.1981 30.2609 21.3559L29.3578 27.344C29.3399 27.4622 29.4274 27.5687 29.5419 27.5687H30.6079C30.7607 27.5687 30.8907 27.4526 30.9145 27.2945L31.158 25.6794C31.1815 25.5213 31.3118 25.4052 31.4643 25.4052H32.1711C33.6419 25.4052 34.4908 24.6609 34.7125 23.1858C34.8124 22.5404 34.7167 22.0333 34.4278 21.6782C34.1104 21.2883 33.5476 21.082 32.8003 21.082ZM33.0578 23.2691C32.9357 24.107 32.3236 24.107 31.7317 24.107H31.3947L31.6311 22.5421C31.6452 22.4475 31.7235 22.3779 31.8149 22.3779H31.9694C32.3726 22.3779 32.7529 22.3779 32.9495 22.6183C33.0667 22.7617 33.1026 22.9747 33.0578 23.2691Z" fill="#253B80"/>
<path d="M39.4746 23.2421H38.4054C38.3143 23.2421 38.2356 23.3117 38.2216 23.4063L38.1742 23.7191L38.0995 23.6057C37.868 23.2544 37.3518 23.1369 36.8366 23.1369C35.6551 23.1369 34.6459 24.0729 34.4494 25.3858C34.3472 26.0407 34.4925 26.6669 34.8477 27.1036C35.1735 27.5052 35.6397 27.6725 36.1944 27.6725C37.1465 27.6725 37.6744 27.0323 37.6744 27.0323L37.6267 27.343C37.6088 27.4618 37.6963 27.5684 37.8102 27.5684H38.7733C38.9264 27.5684 39.0557 27.4523 39.0799 27.2942L39.6578 23.4668C39.676 23.349 39.5889 23.2421 39.4746 23.2421ZM37.9842 25.4185C37.881 26.0574 37.3962 26.4863 36.7779 26.4863C36.4674 26.4863 36.2192 26.3821 36.0599 26.1848C35.9019 25.9888 35.8418 25.7098 35.8921 25.3991C35.9884 24.7657 36.4814 24.3228 37.0903 24.3228C37.3939 24.3228 37.6408 24.4283 37.8033 24.6274C37.9663 24.8285 38.0309 25.1092 37.9842 25.4185Z" fill="#253B80"/>
<path d="M45.1691 23.2421H44.0947C43.9922 23.2421 43.8958 23.2953 43.8377 23.3845L42.3558 25.6675L41.7277 23.4736C41.6882 23.3363 41.567 23.2421 41.4299 23.2421H40.3741C40.2457 23.2421 40.1566 23.3732 40.1974 23.4995L41.3809 27.132L40.2683 28.7747C40.1808 28.9041 40.2689 29.082 40.4201 29.082H41.4932C41.5951 29.082 41.6904 29.0301 41.7482 28.9427L45.3219 23.5477C45.4075 23.4186 45.3196 23.2421 45.1691 23.2421Z" fill="#253B80"/>
<path d="M48.8595 21.0824H46.5879C46.4328 21.0824 46.3007 21.2057 46.2764 21.3733L45.3579 27.7332C45.3396 27.8586 45.4286 27.9718 45.5445 27.9718H46.7101C46.8184 27.9718 46.9111 27.8855 46.928 27.768L47.1887 25.9652C47.2126 25.7973 47.3451 25.674 47.5002 25.674H48.2189C49.7153 25.674 50.5784 24.8834 50.8042 23.3167C50.9062 22.6313 50.8082 22.0928 50.5143 21.7156C50.1918 21.3015 49.6196 21.0824 48.8595 21.0824ZM49.1215 23.4052C48.9976 24.2952 48.3749 24.2952 47.7725 24.2952H47.4301L47.6709 22.6331C47.6852 22.5327 47.7642 22.4587 47.8575 22.4587H48.0146C48.4244 22.4587 48.8116 22.4587 49.0116 22.714C49.1308 22.8663 49.167 23.0926 49.1215 23.4052Z" fill="#179BD7"/>
<path d="M55.6482 23.3766H54.5612C54.4679 23.3766 54.3886 23.4506 54.3746 23.551L54.3265 23.8832L54.2501 23.7628C54.0146 23.3896 53.4899 23.2649 52.9659 23.2649C51.764 23.2649 50.7378 24.2589 50.5379 25.6533C50.4343 26.3489 50.5814 27.014 50.9427 27.4778C51.2748 27.9043 51.7484 28.082 52.3126 28.082C53.281 28.082 53.818 27.4021 53.818 27.4021L53.7695 27.7321C53.7513 27.8583 53.8403 27.9714 53.9568 27.9714H54.9362C55.0913 27.9714 55.2234 27.8481 55.2477 27.6802L55.8358 23.6152C55.8538 23.4901 55.7648 23.3766 55.6482 23.3766ZM54.1322 25.6881C54.0279 26.3667 53.5341 26.8222 52.9051 26.8222C52.5899 26.8222 52.3369 26.7116 52.1748 26.5019C52.0141 26.2938 51.9536 25.9975 52.0041 25.6675C52.1027 24.9947 52.6035 24.5244 53.2229 24.5244C53.5317 24.5244 53.7828 24.6364 53.9482 24.8479C54.1146 25.0615 54.1803 25.3596 54.1322 25.6881Z" fill="#179BD7"/>
<path d="M56.9304 21.2568L55.9982 27.7331C55.9799 27.8586 56.0689 27.9718 56.1848 27.9718H57.122C57.2778 27.9718 57.4099 27.8485 57.4338 27.6806L58.3531 21.321C58.3713 21.1955 58.2823 21.082 58.1664 21.082H57.117C57.0244 21.0824 56.9447 21.1564 56.9304 21.2568Z" fill="#179BD7"/>
<path d="M20.4687 29.082L20.6469 27.9011L20.2501 27.8915H18.3555L19.6721 19.1773C19.6762 19.151 19.6895 19.1265 19.7089 19.109C19.7283 19.0916 19.7532 19.082 19.7791 19.082H22.9737C24.0342 19.082 24.7661 19.3124 25.1482 19.7671C25.3274 19.9804 25.4415 20.2033 25.4966 20.4485C25.5545 20.7059 25.5555 21.0134 25.499 21.3885L25.4949 21.4158V21.6562L25.6741 21.7621C25.8249 21.8456 25.9448 21.9413 26.0368 22.0507C26.19 22.2331 26.2891 22.4649 26.331 22.7397C26.3743 23.0223 26.36 23.3586 26.2891 23.7393C26.2074 24.1773 26.0753 24.5587 25.8968 24.8709C25.7326 25.1585 25.5235 25.397 25.2753 25.5819C25.0382 25.7575 24.7566 25.8908 24.4381 25.9761C24.1296 26.06 23.7778 26.1023 23.3919 26.1023H23.1433C22.9655 26.1023 22.7928 26.1691 22.6573 26.2889C22.5214 26.4112 22.4315 26.5783 22.4039 26.761L22.3851 26.8673L22.0705 28.9487L22.0561 29.0252C22.0524 29.0493 22.0459 29.0614 22.0364 29.0696C22.0279 29.0771 22.0156 29.082 22.0037 29.082H20.4687Z" fill="#253B80"/>
<path d="M25.4426 22.082C25.4325 22.1377 25.4209 22.1946 25.4079 22.2531C24.9613 24.2281 23.4334 24.9103 21.4819 24.9103H20.4883C20.2497 24.9103 20.0486 25.0596 20.0114 25.2624L19.5027 28.0412L19.3586 28.8289C19.3344 28.962 19.4536 29.082 19.6095 29.082H21.3718C21.5805 29.082 21.7578 28.9514 21.7906 28.7742L21.8079 28.697L22.1397 26.8835L22.161 26.7839C22.1935 26.6061 22.3712 26.4755 22.5799 26.4755H22.8434C24.5508 26.4755 25.8874 25.8784 26.2781 24.1506C26.4413 23.4289 26.3568 22.8262 25.925 22.4023C25.7943 22.2745 25.6322 22.1685 25.4426 22.082Z" fill="#179BD7"/>
<path d="M24.9254 21.2408C24.8625 21.2211 24.7977 21.2032 24.7313 21.1872C24.6644 21.1714 24.596 21.1575 24.5255 21.1453C24.2789 21.1024 24.0087 21.082 23.7192 21.082H21.2755C21.2153 21.082 21.1582 21.0967 21.107 21.1232C20.9943 21.1814 20.9105 21.2962 20.8903 21.4367L20.3704 24.9787L20.3555 25.082C20.3897 24.8489 20.5748 24.6773 20.7945 24.6773H21.7093C23.5058 24.6773 24.9124 23.8924 25.3236 21.6219C25.3359 21.5547 25.3462 21.4893 25.3555 21.4253C25.2514 21.3659 25.1388 21.3152 25.0174 21.2719C24.9875 21.2612 24.9566 21.2508 24.9254 21.2408Z" fill="#222D65"/>
<path d="M20.6729 21.6646C20.694 21.5328 20.7809 21.4251 20.8979 21.3708C20.9514 21.346 21.0104 21.3322 21.0728 21.3322H23.6098C23.9103 21.3322 24.1908 21.3513 24.4469 21.3916C24.52 21.403 24.5911 21.4161 24.6605 21.4308C24.7295 21.4459 24.7968 21.4627 24.862 21.4811C24.8944 21.4905 24.9265 21.5003 24.9579 21.51C25.0839 21.5506 25.2009 21.5985 25.3089 21.6539C25.4358 20.8666 25.3078 20.3306 24.8699 19.8452C24.3872 19.3108 23.5159 19.082 22.401 19.082H19.1643C18.9366 19.082 18.7423 19.243 18.7071 19.4621L17.3589 27.7694C17.3323 27.9338 17.4628 28.082 17.6332 28.082H19.6315L20.1332 24.9875L20.6729 21.6646Z" fill="#253B80"/>
</g>
<defs>
<filter id="filter0_d_397_8919" x="0" y="0" width="76" height="52" filterUnits="userSpaceOnUse" color-interpolation-filters="sRGB">
<feFlood flood-opacity="0" result="BackgroundImageFix"/>
<feColorMatrix in="SourceAlpha" type="matrix" values="0 0 0 0 0 0 0 0 0 0 0 0 0 0 0 0 0 0 127 0" result="hardAlpha"/>
<feOffset dy="2"/>
<feGaussianBlur stdDeviation="4"/>
<feComposite in2="hardAlpha" operator="out"/>
<feColorMatrix type="matrix" values="0 0 0 0 0 0 0 0 0 0 0 0 0 0 0 0 0 0 0.1 0"/>
<feBlend mode="normal" in2="BackgroundImageFix" result="effect1_dropShadow_397_8919"/>
<feBlend mode="normal" in="SourceGraphic" in2="effect1_dropShadow_397_8919" result="shape"/>
</filter>
</defs>
</svg>
