<svg width="76" height="52" viewBox="0 0 76 52" fill="none" xmlns="http://www.w3.org/2000/svg">
<g filter="url(#filter0_d_390_3065)">
<rect x="8" y="6" width="60" height="36" rx="4" fill="white"/>
<path fill-rule="evenodd" clip-rule="evenodd" d="M45.2428 29.7823C44.3872 30.0242 43.273 30.125 42.318 30.125C39.831 30.125 38.1995 28.8147 38.1995 26.4158C38.1995 24.1379 39.7315 22.6663 41.9598 22.6663C42.4572 22.6663 42.9945 22.7268 43.3128 22.8881V19.582H45.2428V29.7823ZM43.3128 24.5814C43.0143 24.4403 42.5965 24.3596 42.119 24.3596C40.9452 24.3596 40.1692 25.0853 40.1692 26.3553C40.1692 27.7059 41.0049 28.472 42.3777 28.472C42.6164 28.472 42.9945 28.472 43.3128 28.3913V24.5814ZM61.1004 29.7823C60.2449 30.0242 59.1306 30.125 58.1557 30.125C55.6885 30.125 54.0371 28.8147 54.0371 26.4158C54.0371 24.1379 55.5691 22.6663 57.7976 22.6663C58.3149 22.6663 58.8322 22.7268 59.1505 22.8881V19.582H61.1004V29.7823ZM59.1505 24.5814C58.8521 24.4403 58.4542 24.3596 57.9766 24.3596C56.7828 24.3596 56.0069 25.0853 56.0069 26.3553C56.0069 27.7059 56.8624 28.472 58.2353 28.472C58.4741 28.472 58.8322 28.472 59.1505 28.3913V24.5814ZM48.287 24.5814C48.6053 24.4403 49.0629 24.3999 49.441 24.3999C50.6348 24.3999 51.4505 25.0853 51.4505 26.315C51.4505 27.7664 50.5353 28.4317 49.3216 28.4518V30.125H49.4211C51.9281 30.125 53.4203 28.734 53.4203 26.2545C53.4203 23.9968 51.8286 22.6663 49.4808 22.6663C48.287 22.6663 47.1131 22.9485 46.3371 23.2711V32.8464H48.287V24.5814Z" fill="#3F3F42"/>
<path fill-rule="evenodd" clip-rule="evenodd" d="M31.0764 18.0117L31.3947 18.3746L31.5738 18.2738L31.0764 18.0117Z" fill="#DC0032"/>
<path fill-rule="evenodd" clip-rule="evenodd" d="M30.5989 17.75L31.2156 18.4757L31.4345 18.3548L31.1958 18.0725L30.5989 17.75Z" fill="#DC0032"/>
<path fill-rule="evenodd" clip-rule="evenodd" d="M30.1016 17.4883L31.0367 18.5769L31.2555 18.4559L30.7184 17.8108L30.1016 17.4883Z" fill="#DC0032"/>
<path fill-rule="evenodd" clip-rule="evenodd" d="M29.624 17.2266L30.8576 18.678L31.0765 18.557L30.2209 17.5491L29.624 17.2266ZM31.9917 19.7867L31.8524 19.8673L31.9917 20.0286V19.7867Z" fill="#DC0032"/>
<path fill-rule="evenodd" clip-rule="evenodd" d="M29.1465 16.9648L30.6785 18.7791L30.8974 18.6582L29.7434 17.2874L29.1465 16.9648ZM31.9121 19.8274L31.6932 19.9685L31.9917 20.3313V19.9483L31.9121 19.8274Z" fill="#DC0032"/>
<path fill-rule="evenodd" clip-rule="evenodd" d="M28.6489 16.7031L30.4993 18.8803L30.7381 18.7593L29.2657 17.0257L28.6489 16.7031ZM31.7329 19.9285L31.514 20.0696L31.9915 20.6341V20.251L31.7329 19.9285Z" fill="#DC0032"/>
<path fill-rule="evenodd" clip-rule="evenodd" d="M28.1714 16.4375L30.3401 18.9775L30.559 18.8565L28.7683 16.76L28.1714 16.4375ZM31.5538 20.0459L31.3349 20.1668L31.9915 20.953V20.57L31.5538 20.0459Z" fill="#DC0032"/>
<path fill-rule="evenodd" clip-rule="evenodd" d="M27.6938 16.1758L30.161 19.0786L30.3799 18.9577L28.2907 16.4983L27.6938 16.1758ZM31.3747 20.147L31.1558 20.268L31.9915 21.2557V20.8727L31.3747 20.147Z" fill="#DC0032"/>
<path fill-rule="evenodd" clip-rule="evenodd" d="M27.1965 15.9141L29.982 19.1798L30.2009 19.0588L27.8133 16.2366L27.1965 15.9141ZM31.1957 20.2481L30.9769 20.3691L31.9916 21.5585V21.1755L31.1957 20.2481Z" fill="#DC0032"/>
<path fill-rule="evenodd" clip-rule="evenodd" d="M26.719 15.6523L29.803 19.3011L30.0218 19.1599L27.3159 15.9749L26.719 15.6523ZM31.0166 20.3493L30.7978 20.4702L31.9916 21.8814V21.4983L31.0166 20.3493Z" fill="#DC0032"/>
<path fill-rule="evenodd" clip-rule="evenodd" d="M26.2217 15.3906L29.624 19.4022L29.8428 19.2611L26.8385 15.7132L26.2217 15.3906ZM30.8576 20.4504L30.6188 20.5714L31.9917 22.1841V21.8011L30.8576 20.4504Z" fill="#DC0032"/>
<path fill-rule="evenodd" clip-rule="evenodd" d="M25.7441 15.1289L29.4449 19.5033L29.6837 19.3622L26.3609 15.4514L25.7441 15.1289ZM30.6785 20.5516L30.4596 20.6725L31.9916 22.507V22.1038L30.6785 20.5516Z" fill="#DC0032"/>
<path fill-rule="evenodd" clip-rule="evenodd" d="M25.2666 14.8672L29.2857 19.6044L29.5046 19.4633L25.8635 15.1897L25.2666 14.8672ZM30.4994 20.6527L30.2805 20.7736L31.9916 22.8097V22.4267L30.4994 20.6527Z" fill="#DC0032"/>
<path fill-rule="evenodd" clip-rule="evenodd" d="M24.7693 14.5859L29.1067 19.7062L29.3256 19.5651L25.3861 14.9286L24.7693 14.5859ZM30.3204 20.7545L30.1016 20.8754L31.9917 23.113V22.73L30.3204 20.7545Z" fill="#DC0032"/>
<path fill-rule="evenodd" clip-rule="evenodd" d="M24.2917 14.3242L28.9276 19.8073L29.1465 19.6864L24.9085 14.6669L24.2917 14.3242ZM30.1413 20.8556L29.9225 20.9765L31.9917 23.4359V23.0327L30.1413 20.8556Z" fill="#DC0032"/>
<path fill-rule="evenodd" clip-rule="evenodd" d="M23.8142 14.082L28.7485 19.9079L28.9674 19.7869L24.4111 14.4046L23.8142 14.082ZM29.9622 20.9561L29.7434 21.0771L31.9917 23.738V23.355L29.9622 20.9561Z" fill="#DC0032"/>
<path fill-rule="evenodd" clip-rule="evenodd" d="M23.4958 14L28.5694 20.0072L28.7883 19.8863L23.9336 14.1411L23.8142 14.0806C23.7147 14.0202 23.6152 14 23.4958 14ZM29.7831 21.0555L29.5643 21.1765L31.9916 24.039V23.656L29.7831 21.0555Z" fill="#DC0032"/>
<path fill-rule="evenodd" clip-rule="evenodd" d="M23.4958 14C23.4163 14 23.3367 14.0202 23.2571 14.0403L28.3904 20.108L28.6291 19.9871L23.5555 14C23.5356 14 23.5157 14 23.4958 14ZM29.624 21.1563L29.4051 21.2772L31.9916 24.3615V23.9583L29.624 21.1563Z" fill="#DC0032"/>
<path fill-rule="evenodd" clip-rule="evenodd" d="M23.3166 14.0195C23.2768 14.0397 23.2172 14.0598 23.1973 14.08L23.0779 14.1405L28.2311 20.2082L28.4499 20.0873L23.3166 14.0195ZM29.4448 21.2565L29.2259 21.3976L31.9915 24.6633V24.2802L29.4448 21.2565Z" fill="#DC0032"/>
<path fill-rule="evenodd" clip-rule="evenodd" d="M23.1178 14.1016L22.8989 14.2225L28.0521 20.3104L28.271 20.1894L23.1178 14.1016ZM29.2658 21.3587L29.0469 21.4998L31.9916 24.967V24.584L29.2658 21.3587Z" fill="#DC0032"/>
<path fill-rule="evenodd" clip-rule="evenodd" d="M22.9388 14.2031L22.72 14.3241L27.8732 20.412L28.092 20.291L22.9388 14.2031ZM29.0869 21.4602L28.868 21.6013L31.9917 25.2903V24.9073L29.0869 21.4602Z" fill="#DC0032"/>
<path fill-rule="evenodd" clip-rule="evenodd" d="M22.7596 14.3008L22.5408 14.4217L27.694 20.5096L27.9128 20.3887L22.7596 14.3008ZM28.9077 21.5579L28.6888 21.699L31.9916 25.5896V25.2066L28.9077 21.5579Z" fill="#DC0032"/>
<path fill-rule="evenodd" clip-rule="evenodd" d="M22.5807 14.4023L22.3618 14.5233L27.515 20.6112L27.7339 20.4902L22.5807 14.4023ZM28.7287 21.6594L28.5098 21.8005L31.9917 25.8927V25.5097L28.7287 21.6594Z" fill="#DC0032"/>
<path fill-rule="evenodd" clip-rule="evenodd" d="M22.4015 14.5039L22.1826 14.6249L27.3358 20.7127L27.5547 20.5918L22.4015 14.5039ZM28.5694 21.761L28.3505 21.9021L31.9916 26.216V25.833L28.5694 21.761Z" fill="#DC0032"/>
<path fill-rule="evenodd" clip-rule="evenodd" d="M22.2225 14.5859L22.0037 14.727L27.1768 20.8149L27.3956 20.694L22.2225 14.5859ZM28.3904 21.8833L28.1716 22.0043L31.9917 26.5198V26.1368L28.3904 21.8833Z" fill="#DC0032"/>
<path fill-rule="evenodd" clip-rule="evenodd" d="M22.0433 14.6836L21.8245 14.8045L26.9976 20.9126L27.2164 20.7916L22.0433 14.6836ZM28.2112 21.981L27.9924 22.102L31.9916 26.8392V26.4361L28.2112 21.981Z" fill="#DC0032"/>
<path fill-rule="evenodd" clip-rule="evenodd" d="M21.8644 14.7852L21.6455 14.9061L26.8186 21.0343L27.0375 20.8932L21.8644 14.7852ZM28.0323 22.0826L27.8134 22.2035L31.9917 27.1424V26.7593L28.0323 22.0826Z" fill="#DC0032"/>
<path fill-rule="evenodd" clip-rule="evenodd" d="M21.6852 14.8867L21.4663 15.0077L26.6394 21.1359L26.8583 20.9948L21.6852 14.8867ZM27.8531 22.1841L27.6342 22.3051L31.9916 27.4455V27.0625L27.8531 22.1841Z" fill="#DC0032"/>
<path fill-rule="evenodd" clip-rule="evenodd" d="M21.5062 14.9883L21.2874 15.1092L26.4605 21.2374L26.6793 21.0963L21.5062 14.9883ZM27.6741 22.2857L27.4553 22.4066L31.9917 27.7688V27.3656L27.6741 22.2857Z" fill="#DC0032"/>
<path fill-rule="evenodd" clip-rule="evenodd" d="M21.327 15.0898L21.1082 15.2108L26.2813 21.339L26.5001 21.1979L21.327 15.0898ZM27.5149 22.3873L27.296 22.5082L31.9916 28.072V27.689L27.5149 22.3873Z" fill="#DC0032"/>
<path fill-rule="evenodd" clip-rule="evenodd" d="M21.1479 15.168L20.9092 15.2889L26.1221 21.4373L26.3409 21.2962L21.1479 15.168ZM27.3358 22.4855L27.1169 22.6065L31.9915 28.3718V27.9888L27.3358 22.4855Z" fill="#DC0032"/>
<path fill-rule="evenodd" clip-rule="evenodd" d="M20.969 15.2695L20.7302 15.3905L25.963 21.559C25.9829 21.5187 26.0028 21.4985 26.0426 21.4784L26.162 21.3977L20.969 15.2695ZM27.1568 22.5871L26.938 22.7081L31.9519 28.6347C31.9718 28.5742 31.9917 28.5137 31.9917 28.4532V28.292L27.1568 22.5871Z" fill="#DC0032"/>
<path fill-rule="evenodd" clip-rule="evenodd" d="M20.7898 15.3711L20.551 15.492L25.9032 21.8017V21.7211C25.9032 21.6606 25.943 21.5799 25.9828 21.5195L20.7898 15.3711ZM26.9776 22.6887L26.8184 22.7895C26.7985 22.7895 26.7787 22.8096 26.7588 22.8096L31.8523 28.837C31.9119 28.7564 31.9517 28.6758 31.9716 28.5951L26.9776 22.6887Z" fill="#DC0032"/>
<path fill-rule="evenodd" clip-rule="evenodd" d="M20.6108 15.4727L20.3721 15.5936L25.9033 22.125V21.7218L20.6108 15.4727ZM26.4206 22.7096L31.7131 28.9789C31.7728 28.9386 31.8324 28.858 31.8921 28.7975L26.7986 22.7902C26.7191 22.8305 26.5997 22.8305 26.5201 22.7902L26.4206 22.7096Z" fill="#DC0032"/>
<path fill-rule="evenodd" clip-rule="evenodd" d="M20.4318 15.5742L20.1931 15.6952L31.5341 29.0805L31.6933 28.9998C31.7132 28.9797 31.7331 28.9595 31.753 28.9394L26.5401 22.791H26.5202L26.0626 22.5088C26.0228 22.4886 26.0029 22.4483 25.9631 22.408C25.9233 22.3475 25.9233 22.3072 25.9034 22.2669V22.0451L20.4318 15.5742Z" fill="#DC0032"/>
<path fill-rule="evenodd" clip-rule="evenodd" d="M20.2527 15.6719L20.0139 15.7928L31.3549 29.1781L31.5738 29.0572L20.2527 15.6719Z" fill="#DC0032"/>
<path fill-rule="evenodd" clip-rule="evenodd" d="M20.0737 15.7539L19.835 15.8749L31.1959 29.2803L31.4147 29.1594L20.0737 15.7539Z" fill="#DC0032"/>
<path fill-rule="evenodd" clip-rule="evenodd" d="M19.8945 15.8555L19.6558 15.9764L31.0167 29.3819L31.2355 29.2609L19.8945 15.8555Z" fill="#DC0032"/>
<path fill-rule="evenodd" clip-rule="evenodd" d="M19.7156 15.957L19.4768 16.078L30.8377 29.4834L31.0566 29.3625L19.7156 15.957Z" fill="#DC0032"/>
<path fill-rule="evenodd" clip-rule="evenodd" d="M19.5165 16.0547L19.2976 16.1756L30.6585 29.6013L30.8774 29.4602L19.5165 16.0547Z" fill="#DC0032"/>
<path fill-rule="evenodd" clip-rule="evenodd" d="M19.3375 16.1562L19.1187 16.2772L30.4796 29.7028L30.6984 29.5617L19.3375 16.1562Z" fill="#DC0032"/>
<path fill-rule="evenodd" clip-rule="evenodd" d="M19.1583 16.2578L18.9395 16.3788L30.3203 29.8044L30.5391 29.6633L19.1583 16.2578Z" fill="#DC0032"/>
<path fill-rule="evenodd" clip-rule="evenodd" d="M18.9794 16.3398L18.7605 16.4608L30.1413 29.9066L30.3602 29.7655L18.9794 16.3398Z" fill="#DC0032"/>
<path fill-rule="evenodd" clip-rule="evenodd" d="M18.8002 16.4375L18.5813 16.5585L29.9621 30.0042L30.181 29.8833L18.8002 16.4375Z" fill="#DC0032"/>
<path fill-rule="evenodd" clip-rule="evenodd" d="M18.6212 16.5391L18.4023 16.66L23.9336 23.1914L24.1126 23.3123C24.1922 23.3527 24.2718 23.4534 24.2718 23.5542V23.5744L29.7832 30.1058L30.002 29.9848L18.6212 16.5391Z" fill="#DC0032"/>
<path fill-rule="evenodd" clip-rule="evenodd" d="M18.442 16.6406L18.2231 16.7616L23.4161 22.91L24.0727 23.2728L18.442 16.6406ZM24.2518 23.4945C24.2518 23.5147 24.2717 23.5349 24.2717 23.555V23.8977L29.604 30.2074L29.8228 30.0864L24.2518 23.4945Z" fill="#DC0032"/>
<path fill-rule="evenodd" clip-rule="evenodd" d="M18.2631 16.7422L18.0442 16.8631L22.8989 22.6084L23.5555 22.9712L18.2631 16.7422ZM24.2718 23.8178V24.2009L29.4449 30.3089L29.6638 30.188L24.2718 23.8178Z" fill="#DC0032"/>
<path fill-rule="evenodd" clip-rule="evenodd" d="M18.0839 16.8438L17.865 16.9647L22.4014 22.3067L23.0381 22.6696L18.0839 16.8438ZM24.2717 24.121V24.5242L29.2657 30.4105L29.4846 30.2895L24.2717 24.121Z" fill="#DC0032"/>
<path fill-rule="evenodd" clip-rule="evenodd" d="M17.9049 16.9219L17.686 17.0428L21.8842 22.0018L22.5209 22.3849L17.9049 16.9219ZM24.2718 24.441V24.824L29.0867 30.5088L29.3056 30.3878L24.2718 24.441Z" fill="#DC0032"/>
<path fill-rule="evenodd" clip-rule="evenodd" d="M17.7259 17.0234L17.5071 17.1444L21.367 21.7002L22.0037 22.0833L17.7259 17.0234ZM24.2719 24.7442V25.1272L28.9078 30.6103L29.1266 30.4894L24.2719 24.7442Z" fill="#DC0032"/>
<path fill-rule="evenodd" clip-rule="evenodd" d="M17.5467 17.125L17.3279 17.246L20.8496 21.4188L21.4862 21.7816L17.5467 17.125ZM24.2718 25.0473V25.4505L28.7286 30.732L28.9474 30.5909L24.2718 25.0473Z" fill="#DC0032"/>
<path fill-rule="evenodd" clip-rule="evenodd" d="M17.3678 17.2266L17.1489 17.3475L20.3324 21.1172L20.969 21.48L17.3678 17.2266ZM24.2719 25.3706V25.7537L28.5695 30.8336L28.7884 30.6925L24.2719 25.3706Z" fill="#DC0032"/>
<path fill-rule="evenodd" clip-rule="evenodd" d="M17.1886 17.3242L16.9697 17.4452L19.8149 20.8117L20.4715 21.1745L17.1886 17.3242ZM24.2717 25.6699V26.0529L28.3903 30.9313L28.6092 30.7901L24.2717 25.6699Z" fill="#DC0032"/>
<path fill-rule="evenodd" clip-rule="evenodd" d="M17.0096 17.4258L16.7908 17.5467L19.2977 20.51L19.9543 20.8931L17.0096 17.4258ZM22.2225 23.9572L22.7398 24.5619V24.3402C22.7398 24.2999 22.7 24.2394 22.6602 24.2192L22.2225 23.9572ZM24.2719 25.973V26.3762L28.2114 31.0328L28.4302 30.8917L24.2719 25.973Z" fill="#DB0032"/>
<path fill-rule="evenodd" clip-rule="evenodd" d="M16.8304 17.5078L16.6116 17.6288L18.7803 20.2091L19.4369 20.5921L16.8304 17.5078ZM21.7051 23.6562L22.7397 24.8657V24.4827L22.3617 24.0392L21.7051 23.6562ZM24.2717 26.297V26.68L28.0322 31.135L28.251 31.0141L24.2717 26.297Z" fill="#DC0032"/>
<path fill-rule="evenodd" clip-rule="evenodd" d="M16.6515 17.6094L16.4326 17.7303L18.283 19.9276L18.9197 20.2905L16.6515 17.6094ZM21.1879 23.3747L22.7398 25.189V24.806L21.8445 23.7376L21.1879 23.3747ZM24.2718 26.6001V26.9831L27.8532 31.2366L28.0721 31.1156L24.2718 26.6001Z" fill="#DC0032"/>
<path fill-rule="evenodd" clip-rule="evenodd" d="M16.4723 17.7109L16.2534 17.8319L17.7655 19.626L18.4022 19.9888L16.4723 17.7109ZM20.6903 23.0731L22.7397 25.4922V25.1091L21.327 23.436L20.6903 23.0731ZM24.2717 26.9234V27.3064L27.6939 31.3381L27.9128 31.2172L24.2717 26.9234Z" fill="#DC0032"/>
<path fill-rule="evenodd" clip-rule="evenodd" d="M16.2933 17.8086L16.0745 17.9295L17.2484 19.3205L17.885 19.6833L16.2933 17.8086ZM20.1732 22.7676L22.7398 25.7914V25.4084L20.8098 23.1506L20.1732 22.7676ZM24.2718 27.2226V27.6057L27.515 31.4358L27.7338 31.3148L24.2718 27.2226Z" fill="#DC0032"/>
<path fill-rule="evenodd" clip-rule="evenodd" d="M16.1141 17.9102L15.8953 18.0311L16.7309 19.0189L17.3676 19.4019L16.1141 17.9102ZM19.6557 22.466L22.7397 26.1147V25.7317L20.2924 22.849L19.6557 22.466ZM24.2717 27.5258V27.9088L27.3358 31.5374L27.5546 31.4164L24.2717 27.5258Z" fill="#DC0032"/>
<path fill-rule="evenodd" clip-rule="evenodd" d="M15.9352 18.0117L15.7163 18.1327L16.2137 18.7173L16.8703 19.1003L15.9352 18.0117ZM19.1385 22.1845L22.7398 26.4179V26.0348L19.7752 22.5474L19.1385 22.1845ZM24.2718 27.8491V28.2321L27.1568 31.6389L27.3757 31.518L24.2718 27.8491Z" fill="#DC0032"/>
<path fill-rule="evenodd" clip-rule="evenodd" d="M15.7561 18.0938L15.5173 18.2147L15.6964 18.4364L16.353 18.7993L15.7561 18.0938ZM18.6212 21.8836L22.7398 26.7418V26.3386L19.2778 22.2464L18.6212 21.8836ZM24.2718 28.1529V28.5359L26.9777 31.7613L27.1966 31.6201L24.2718 28.1529Z" fill="#DC0032"/>
<path fill-rule="evenodd" clip-rule="evenodd" d="M15.577 18.1914L15.4377 18.272L15.8357 18.4938L15.577 18.1914ZM18.1039 21.578L22.7398 27.041V26.658L18.7605 21.9611L18.1039 21.578ZM24.2718 28.4521V28.8553L26.8186 31.8589L27.0374 31.7178L24.2718 28.4521Z" fill="#DC0032"/>
<path fill-rule="evenodd" clip-rule="evenodd" d="M17.6064 21.2773L22.7398 27.3451V26.9621L18.2431 21.6604L17.6064 21.2773ZM24.2718 28.7763V29.1594L26.6395 31.9614L26.8583 31.8203L24.2718 28.7763Z" fill="#DC0032"/>
<path fill-rule="evenodd" clip-rule="evenodd" d="M17.0891 20.9961L22.7397 27.6686V27.2654L17.7258 21.359L17.0891 20.9961ZM24.2717 29.0797V29.4627L26.4604 32.0632L26.6792 31.922L24.2717 29.0797Z" fill="#DC0032"/>
<path fill-rule="evenodd" clip-rule="evenodd" d="M16.5718 20.6914L22.7397 27.9687V27.5856L17.2085 21.0543L16.5718 20.6914ZM24.2717 29.3798V29.7829L26.2813 32.1616L26.5001 32.0407L24.2717 29.3798Z" fill="#DC0032"/>
<path fill-rule="evenodd" clip-rule="evenodd" d="M16.0544 20.3906L22.7397 28.2726V27.8896L16.6911 20.7736L16.0544 20.3906ZM24.2717 29.7039V30.0869L26.1022 32.264L26.3211 32.1431L24.2717 29.7039Z" fill="#DB0032"/>
<path fill-rule="evenodd" clip-rule="evenodd" d="M15.5371 20.0859L22.7397 28.5929V28.2099L16.1738 20.469L15.5371 20.0859ZM24.2717 30.004V30.387L25.943 32.3625L26.1619 32.2416L24.2717 30.004Z" fill="#DA0032"/>
<path fill-rule="evenodd" clip-rule="evenodd" d="M15.0198 19.8047L22.7396 28.8962V28.5132L15.6764 20.1675L15.0198 19.8047ZM24.2716 30.3073V30.7105L25.7639 32.4643L25.9828 32.3433L24.2716 30.3073Z" fill="#D90032"/>
<path fill-rule="evenodd" clip-rule="evenodd" d="M15 19.7852V20.0674L22.7398 29.1992V28.8162L15.1592 19.8658L15 19.7852ZM24.2718 30.6305V30.8724C24.2718 30.9127 24.2519 30.953 24.232 30.9732L25.5849 32.5657L25.8038 32.4448L24.2718 30.6305Z" fill="#D80032"/>
<path fill-rule="evenodd" clip-rule="evenodd" d="M15 19.9883V20.3915L22.7398 29.5233V29.1403L15 19.9883ZM24.2519 30.9344C24.232 31.015 24.1723 31.0957 24.1126 31.1158L24.0927 31.136L25.4059 32.668L25.6247 32.5471L24.2519 30.9344Z" fill="#D70032"/>
<path fill-rule="evenodd" clip-rule="evenodd" d="M15 20.3086V20.6916L22.7398 29.8235V29.4404L15 20.3086ZM24.1325 31.0934C24.1325 31.1136 24.1325 31.1136 24.1126 31.1136L23.9137 31.2345L25.2268 32.7666L25.4457 32.6457L24.1325 31.0934Z" fill="#D60032"/>
<path fill-rule="evenodd" clip-rule="evenodd" d="M15 20.6133V20.9963L22.7398 30.1281V29.7451L15 20.6133ZM23.9733 31.1965L23.7346 31.3376L25.0676 32.8899L25.2865 32.7488L23.9733 31.1965Z" fill="#D50032"/>
<path fill-rule="evenodd" clip-rule="evenodd" d="M15 20.9336V21.3166L22.7398 30.4484V30.0654L15 20.9336ZM23.7943 31.2951L23.655 31.3757C23.6152 31.3959 23.5754 31.3959 23.5356 31.3959L24.8886 32.9884L25.1074 32.8473L23.7943 31.2951Z" fill="#D40032"/>
<path fill-rule="evenodd" clip-rule="evenodd" d="M15 21.2383V21.6213L22.7398 30.7531V30.3701L15 21.2383ZM23.1775 31.2974L24.7095 33.0915L24.9284 32.9504L23.5953 31.3982C23.5754 31.3982 23.5356 31.4184 23.5157 31.4184H23.4958C23.4361 31.4184 23.3963 31.3982 23.3565 31.378L23.1775 31.2974Z" fill="#D30032"/>
<path fill-rule="evenodd" clip-rule="evenodd" d="M15 21.5391V21.9422L24.5304 33.1907L24.7493 33.0496L23.3168 31.3563L22.879 31.1144C22.7994 31.0741 22.7398 30.9733 22.7398 30.8725V30.6709L15 21.5391Z" fill="#D20032"/>
<path fill-rule="evenodd" clip-rule="evenodd" d="M15 21.8633V22.2463L24.3514 33.2932L24.5702 33.1722L15 21.8633Z" fill="#D10032"/>
<path fill-rule="evenodd" clip-rule="evenodd" d="M15 22.1641V22.5471L24.1723 33.3924L24.3911 33.2714L15 22.1641Z" fill="#D00032"/>
<path fill-rule="evenodd" clip-rule="evenodd" d="M15 22.4648V22.868L24.0131 33.4916L24.232 33.3706L15 22.4648Z" fill="#CF0032"/>
<path fill-rule="evenodd" clip-rule="evenodd" d="M15 22.7891V23.1721L23.8341 33.5941L24.0529 33.4731L15 22.7891Z" fill="#CE0032"/>
<path fill-rule="evenodd" clip-rule="evenodd" d="M15 23.0898V23.4729L23.6351 33.6731C23.6948 33.653 23.7545 33.6328 23.8142 33.6126L23.8739 33.5723L15 23.0898Z" fill="#CD0032"/>
<path fill-rule="evenodd" clip-rule="evenodd" d="M15 23.3945V23.7977L23.3764 33.6754C23.4162 33.6754 23.456 33.6754 23.4958 33.6754C23.5555 33.6754 23.6152 33.6754 23.6749 33.6553L15 23.3945Z" fill="#CC0032"/>
<path fill-rule="evenodd" clip-rule="evenodd" d="M15 23.7148V24.0979L22.9188 33.4515L23.1974 33.6127C23.2571 33.653 23.3565 33.6732 23.4361 33.6732L15 23.7148Z" fill="#CB0032"/>
<path fill-rule="evenodd" clip-rule="evenodd" d="M15 24.0195V24.4025L22.4015 33.1514L23.0581 33.5344L15 24.0195Z" fill="#CA0032"/>
<path fill-rule="evenodd" clip-rule="evenodd" d="M15 24.3398V24.7229L21.8842 32.8468L22.5408 33.2298L15 24.3398Z" fill="#C90032"/>
<path fill-rule="evenodd" clip-rule="evenodd" d="M15 24.6445V25.0275L21.3669 32.5467L22.0036 32.9297L15 24.6445Z" fill="#C80033"/>
<path fill-rule="evenodd" clip-rule="evenodd" d="M15 24.9453V25.3283L20.8496 32.2427L21.4863 32.6257L15 24.9453Z" fill="#C70033"/>
<path fill-rule="evenodd" clip-rule="evenodd" d="M15 25.2695V25.6525L20.3124 31.9219L20.9689 32.3049L15 25.2695Z" fill="#C60033"/>
<path fill-rule="evenodd" clip-rule="evenodd" d="M15 25.5703V25.9533L19.7951 31.6179L20.4516 32.0009L15 25.5703Z" fill="#C50033"/>
<path fill-rule="evenodd" clip-rule="evenodd" d="M15 25.875V26.258L19.2778 31.3178L19.9343 31.7008L15 25.875Z" fill="#C40033"/>
<path fill-rule="evenodd" clip-rule="evenodd" d="M15 26.1953V26.5783L18.7604 31.0132L19.417 31.3962L15 26.1953Z" fill="#C30033"/>
<path fill-rule="evenodd" clip-rule="evenodd" d="M15 26.5V26.883L18.2431 30.7131L18.8997 31.0961L15 26.5Z" fill="#C20033"/>
<path fill-rule="evenodd" clip-rule="evenodd" d="M15 26.8008V27.204L17.7258 30.4092L18.3625 30.7922L15 26.8008Z" fill="#C10033"/>
<path fill-rule="evenodd" clip-rule="evenodd" d="M15 27.125V27.508L17.1886 30.1085L17.8452 30.4915L15 27.125Z" fill="#C00033"/>
<path fill-rule="evenodd" clip-rule="evenodd" d="M15 27.4258V27.8088L16.6713 29.8045L17.3279 30.1674L15 27.4258Z" fill="#BF0033"/>
<path fill-rule="evenodd" clip-rule="evenodd" d="M15 27.7266V28.1297L16.154 29.4804L16.8106 29.8634L15 27.7266Z" fill="#BE0033"/>
<path fill-rule="evenodd" clip-rule="evenodd" d="M15 28.0508V28.4338L15.6367 29.1797L16.2933 29.5627L15 28.0508Z" fill="#BD0033"/>
<path fill-rule="evenodd" clip-rule="evenodd" d="M15 28.3516V28.4524C15 28.6539 15.1393 28.8958 15.2984 28.9966L15.776 29.2587L15 28.3516Z" fill="#BC0033"/>
<path fill-rule="evenodd" clip-rule="evenodd" d="M15.1194 28.8164C15.1592 28.8567 15.1791 28.897 15.2189 28.9172L15.1194 28.8164Z" fill="#BB0033"/>
</g>
<defs>
<filter id="filter0_d_390_3065" x="0" y="0" width="76" height="52" filterUnits="userSpaceOnUse" color-interpolation-filters="sRGB">
<feFlood flood-opacity="0" result="BackgroundImageFix"/>
<feColorMatrix in="SourceAlpha" type="matrix" values="0 0 0 0 0 0 0 0 0 0 0 0 0 0 0 0 0 0 127 0" result="hardAlpha"/>
<feOffset dy="2"/>
<feGaussianBlur stdDeviation="4"/>
<feComposite in2="hardAlpha" operator="out"/>
<feColorMatrix type="matrix" values="0 0 0 0 0 0 0 0 0 0 0 0 0 0 0 0 0 0 0.1 0"/>
<feBlend mode="normal" in2="BackgroundImageFix" result="effect1_dropShadow_390_3065"/>
<feBlend mode="normal" in="SourceGraphic" in2="effect1_dropShadow_390_3065" result="shape"/>
</filter>
</defs>
</svg>
