<svg width="76" height="52" viewBox="0 0 76 52" fill="none" xmlns="http://www.w3.org/2000/svg">
<g filter="url(#filter0_d_397_9044)">
<rect x="8" y="6" width="60" height="36" rx="4" fill="white"/>
<path fill-rule="evenodd" clip-rule="evenodd" d="M17.8615 23.7784C18.0067 23.8375 18.1385 23.9129 18.23 24.0097C18.2999 24.0823 18.3537 24.1576 18.3994 24.241C18.5285 24.4777 18.5527 24.7251 18.5501 24.8892C18.5501 25.0075 18.5339 25.0829 18.5339 25.0829C18.5339 25.0829 18.5259 25.1474 18.5124 25.2496C18.4801 25.4836 18.4183 25.9247 18.3564 26.2932C18.2999 26.6267 18.2327 26.9011 18.2327 26.9011C18.2327 26.9011 18.0686 27.6407 17.4554 27.9662C16.8421 28.2916 15.976 28.2567 15.976 28.2567L13.7544 28.2459L13.3025 30.9893H12.1567L13.3832 23.582H14.7523H16.592C16.592 23.582 16.678 23.582 16.8125 23.5874C16.9578 23.5928 17.1622 23.6089 17.372 23.6466C17.5387 23.6762 17.7082 23.7192 17.8615 23.7784ZM17.1111 26.6294C17.2456 25.9247 17.3478 25.3303 17.3478 25.3169C17.3478 25.3155 17.3483 25.3116 17.3491 25.3055C17.3533 25.2749 17.3648 25.1894 17.3558 25.0909C17.3478 25.0102 17.3263 24.9188 17.2698 24.8489C17.2267 24.7951 17.0923 24.7601 16.9228 24.7386C16.7265 24.7117 16.4871 24.7036 16.3069 24.7009C16.1482 24.6982 16.0352 24.7009 16.0352 24.7009L14.3542 24.6955L13.9454 27.1566L15.8012 27.162C15.8012 27.162 16.2235 27.1781 16.6162 27.0947C16.8529 27.0436 17.06 26.8984 17.1111 26.6294ZM27.0386 25.6423L22.832 25.6477L22.6625 26.6913H25.3549L21.9821 29.9215L21.7992 30.9893L26.1483 30.9867L26.3205 29.9538L23.3672 29.9592L26.8853 26.5998L27.0386 25.6423ZM32.7434 23.582H33.8461L32.6116 30.9893L31.5061 30.9867L32.7434 23.582ZM39.6854 25.645L38.6283 25.6477L39.1663 30.9893L40.4465 30.984L42.0899 27.2453L42.4665 30.984H43.7683L46.0975 25.645H45.0001L43.3756 29.4186L42.991 25.6423L41.6865 25.6396L40.0592 29.4051L39.6854 25.645ZM29.4082 25.5751C29.8627 25.5697 30.398 25.5912 30.7073 25.6907C31.6272 25.992 31.7536 26.7585 31.5761 27.7644L31.4228 28.652L27.8321 28.6628C27.8321 28.6628 27.7621 28.8269 27.7325 29.4562C27.7299 29.4724 27.7299 29.4831 27.7299 29.4912C27.6798 30.0064 28.2482 30.0169 28.4235 30.0202C28.4367 30.0204 28.4478 30.0207 28.4561 30.0211L28.4923 30.0229C28.6366 30.0304 28.9613 30.0472 29.5239 29.9834C30.1425 29.9135 30.2043 29.1577 30.2043 29.1577L31.3474 29.155L31.2775 29.4428L31.2758 29.45C31.2665 29.4899 31.2288 29.6518 31.1242 29.8758C31.0112 30.1179 30.8525 30.3223 30.8525 30.3223C30.8525 30.3223 30.4975 30.7957 29.8251 30.9544C29.1527 31.1131 28.2597 31.0431 28.2597 31.0431C28.2597 31.0431 27.8348 31.0539 27.3345 30.8602C26.8342 30.6693 26.697 30.2578 26.619 29.8167C26.541 29.3729 26.8046 28.0469 26.8046 28.0469C26.8046 28.0469 26.9364 26.8473 27.3802 26.2986C27.824 25.7499 28.604 25.6369 28.604 25.6369C28.7681 25.602 28.9698 25.5804 29.4082 25.5751ZM28.0069 27.6353L30.4679 27.638C30.4679 27.638 30.5594 27.1969 30.4733 26.9064C30.4356 26.7827 30.2958 26.6993 30.1479 26.6698C29.7041 26.5783 29.1581 26.6187 28.9536 26.6375C28.7492 26.6563 28.5314 26.6805 28.3592 26.8096C28.1898 26.9387 28.1037 27.2453 28.1037 27.2453L28.0069 27.6353ZM37.4825 25.6934C37.1732 25.5939 36.638 25.5724 36.1834 25.5778C35.745 25.5831 35.5433 25.6047 35.3792 25.6396C35.3792 25.6396 34.5992 25.7526 34.1554 26.3013C33.7116 26.85 33.5799 28.0495 33.5799 28.0495C33.5799 28.0495 33.3163 29.3755 33.3943 29.8193C33.4723 30.2604 33.6094 30.672 34.1097 30.8629C34.61 31.0566 35.035 31.0458 35.035 31.0458C35.035 31.0458 35.9279 31.1158 36.6003 30.9571C37.2727 30.7984 37.6278 30.325 37.6278 30.325C37.6278 30.325 37.7865 30.1206 37.8994 29.8785C38.004 29.6544 38.0418 29.4925 38.051 29.4527L38.0528 29.4455L38.1227 29.1577L36.9796 29.1604C36.9796 29.1604 36.9177 29.9162 36.2991 29.9861C35.7625 30.047 35.4423 30.0345 35.2887 30.0284C35.266 30.0276 35.2469 30.0268 35.2313 30.0264C35.2232 30.0261 35.2127 30.0258 35.2001 30.0256C35.0263 30.0221 34.4549 30.0104 34.5051 29.4966C34.5051 29.4885 34.5051 29.4778 34.5078 29.4616C34.5374 28.8322 34.6073 28.6682 34.6073 28.6682L38.198 28.6574L38.3513 27.7698C38.5288 26.7612 38.4024 25.992 37.4825 25.6934ZM37.2324 27.638L34.7714 27.6353L34.8682 27.2453C34.8682 27.2453 34.9543 26.9387 35.1237 26.8096C35.2932 26.6805 35.5137 26.6563 35.7181 26.6375C35.9225 26.6187 36.4685 26.5783 36.9123 26.6698C37.0603 26.6993 37.2001 26.7827 37.2378 26.9064C37.3239 27.1942 37.2324 27.638 37.2324 27.638ZM47.367 25.6477L48.0744 29.5531L50.0728 25.645L51.1971 25.6558L48.3165 31.2368C48.3165 31.2368 47.7947 32.2481 47.4719 32.5036C47.1492 32.7591 46.9501 32.8748 46.6865 32.9017L46.6159 32.909C46.4013 32.9316 46.2915 32.9431 46.0625 32.9017L45.7936 32.8533L45.9603 31.8554C45.9603 31.8554 46.4068 31.9388 46.6704 31.8339C46.9367 31.729 47.1492 31.2771 47.1492 31.2771L47.2836 31.0512L46.2428 25.645L47.367 25.6477ZM20.2069 26.0135C20.5646 25.8171 20.9842 25.6423 21.428 25.6423H22.0681L21.8852 26.6751L21.2774 26.6778C20.4059 26.6778 19.9594 27.4175 19.8519 28.0146L19.3301 30.9598H18.152L19.0934 25.6423H20.2687L20.2069 26.0135Z" fill="#D13239"/>
<path fill-rule="evenodd" clip-rule="evenodd" d="M43.0017 18.4875L44.368 15.7414C44.368 15.7414 47.3616 15.6822 49.9437 16.0829C52.5257 16.481 54.8872 17.0943 54.8361 17.1212L48.2895 20.5451C48.2895 20.5451 46.7591 19.5768 44.8602 18.9824C43.7843 18.665 43.0017 18.4875 43.0017 18.4875ZM34.3463 17.1965L34.6314 18.7968C34.6314 18.7968 35.9494 18.4471 37.5282 18.2589C39.5562 17.9818 41.716 18.2777 41.716 18.2777L42.5283 15.8059C42.5283 15.8059 40.0726 15.97 38.2194 16.3143C36.369 16.6585 34.3463 17.1965 34.3463 17.1965ZM28.2516 21.4192L26.6136 20.3165C26.6136 20.3165 28.0956 19.4746 30.0671 18.6892C32.0359 17.9038 33.0876 17.5757 33.0876 17.5757L33.4211 19.1384C33.4211 19.1384 31.5249 19.7732 30.4383 20.2869C29.314 20.7656 28.2516 21.4192 28.2516 21.4192ZM24.1929 24.1896H20.6614C20.6614 24.1896 22.0385 23.1352 22.7324 22.6807C23.4479 22.1885 25.1343 21.1449 25.1343 21.1449L27.13 22.0782C27.13 22.0782 26.1079 22.7264 25.5458 23.1379C24.9837 23.5494 24.1929 24.1896 24.1929 24.1896ZM51.6059 26.1745L52.7651 26.1772L52.835 25.728C52.835 25.728 52.9588 24.9158 53.2358 24.7598C53.3246 24.7087 53.4671 24.6629 53.6312 24.6334C53.9351 24.5796 54.3197 24.5742 54.6344 24.5849L54.6605 24.5859C55.1227 24.6013 55.3078 24.6075 55.7883 24.6629C56.2778 24.7194 56.1541 25.1928 56.1541 25.1928L56.0572 25.9002C56.0572 25.9002 56.0142 26.2176 55.9012 26.4139C55.8017 26.5887 55.5274 26.7071 55.3687 26.7582C54.9868 26.8819 53.6796 27.2154 53.6796 27.2154L52.6521 27.5113C52.6521 27.5113 52.0201 27.6942 51.6677 28.0842C51.3127 28.4769 51.1728 28.9207 51.1244 29.152C51.076 29.3833 50.8043 30.9836 50.8043 30.9836L56.3504 30.9863L56.536 29.8782L52.1492 29.8836L52.2272 29.4317C52.2272 29.4317 52.2783 28.9664 52.4666 28.8131C52.4757 28.8056 52.4841 28.7978 52.4931 28.7894C52.5425 28.7434 52.6093 28.6811 52.905 28.5764C53.1148 28.5011 53.8302 28.3101 53.8302 28.3101L55.4843 27.8583C55.4843 27.8583 56.3881 27.6269 56.7431 27.132C57.0981 26.6398 57.2353 25.6958 57.2353 25.6958C57.2353 25.6958 57.3321 24.7786 57.2568 24.4908C57.1842 24.203 56.9125 23.8587 56.5817 23.7108C56.2509 23.5629 55.9066 23.4768 54.9088 23.4903C53.9109 23.5037 53.416 23.5494 52.9103 23.7377C52.4047 23.9233 52.1115 24.2622 51.9259 24.7409C51.7242 25.1955 51.6059 26.1745 51.6059 26.1745ZM62.0471 28.2348L62.8244 23.5763H61.4473L57.16 28.181L56.9663 29.3483H60.7157L60.4414 30.9836L61.5925 30.9863L61.8642 29.3483L62.9266 29.351L63.1176 28.2348H62.0471ZM60.9013 28.2375L58.4779 28.2348L61.4285 25.0906L60.9013 28.2375ZM50.9012 22.3821L49.4622 21.2901L57.6603 18.1271L57.7237 18.1559C58.7674 18.6297 59.3484 18.8935 60.3714 19.558C60.7803 19.8243 61.3236 20.2492 61.4608 20.3837C61.8346 20.7576 62.1923 21.118 62.3887 21.4569C62.7034 22.0002 62.7276 22.3821 62.7276 22.3821H50.9012Z" fill="#B3B2B1"/>
</g>
<defs>
<filter id="filter0_d_397_9044" x="0" y="0" width="76" height="52" filterUnits="userSpaceOnUse" color-interpolation-filters="sRGB">
<feFlood flood-opacity="0" result="BackgroundImageFix"/>
<feColorMatrix in="SourceAlpha" type="matrix" values="0 0 0 0 0 0 0 0 0 0 0 0 0 0 0 0 0 0 127 0" result="hardAlpha"/>
<feOffset dy="2"/>
<feGaussianBlur stdDeviation="4"/>
<feComposite in2="hardAlpha" operator="out"/>
<feColorMatrix type="matrix" values="0 0 0 0 0 0 0 0 0 0 0 0 0 0 0 0 0 0 0.1 0"/>
<feBlend mode="normal" in2="BackgroundImageFix" result="effect1_dropShadow_397_9044"/>
<feBlend mode="normal" in="SourceGraphic" in2="effect1_dropShadow_397_9044" result="shape"/>
</filter>
</defs>
</svg>
