<svg width="76" height="52" viewBox="0 0 76 52" fill="none" xmlns="http://www.w3.org/2000/svg">
<g filter="url(#filter0_d_397_8801)">
<rect x="8" y="6" width="60" height="36" rx="4" fill="white"/>
<path fill-rule="evenodd" clip-rule="evenodd" d="M59 24.7837C59 21.8785 57.5533 19.5861 54.7883 19.5861C52.0117 19.5861 50.3317 21.8785 50.3317 24.761C50.3317 28.1769 52.315 29.9019 55.1617 29.9019C56.55 29.9019 57.6 29.5955 58.3933 29.1642V26.8945C57.6 27.2804 56.69 27.5187 55.535 27.5187C54.4033 27.5187 53.4 27.1329 53.2717 25.7937H58.9767C58.9767 25.6462 59 25.0561 59 24.7837ZM53.2367 23.7056C53.2367 22.4233 54.0417 21.8899 54.7767 21.8899C55.4883 21.8899 56.2467 22.4233 56.2467 23.7056H53.2367Z" fill="#635BFF"/>
<path fill-rule="evenodd" clip-rule="evenodd" d="M45.8283 19.5861C44.6849 19.5861 43.9499 20.1082 43.5416 20.4713L43.3899 19.7677H40.8233V33L43.7399 32.3985L43.7516 29.1869C44.1716 29.482 44.7899 29.9019 45.8166 29.9019C47.9049 29.9019 49.8066 28.2677 49.8066 24.6702C49.7949 21.3792 47.8699 19.5861 45.8283 19.5861ZM45.1283 27.4052C44.4399 27.4052 44.0316 27.1669 43.7516 26.8718L43.7399 22.6616C44.0433 22.3325 44.4633 22.1055 45.1283 22.1055C46.1899 22.1055 46.9249 23.263 46.9249 24.7497C46.9249 26.2704 46.2016 27.4052 45.1283 27.4052Z" fill="#635BFF"/>
<path fill-rule="evenodd" clip-rule="evenodd" d="M36.8099 18.9166L39.7382 18.3037V16L36.8099 16.6015V18.9166Z" fill="#635BFF"/>
<path d="M39.7382 19.779H36.8099V29.7089H39.7382V19.779Z" fill="#635BFF"/>
<path fill-rule="evenodd" clip-rule="evenodd" d="M33.6714 20.6188L33.4848 19.779H30.9648V29.7089H33.8814V22.9793C34.5698 22.1055 35.7364 22.2643 36.0981 22.3892V19.779C35.7248 19.6429 34.3598 19.3932 33.6714 20.6188Z" fill="#635BFF"/>
<path fill-rule="evenodd" clip-rule="evenodd" d="M27.8382 17.3164L24.9915 17.9065L24.9799 26.9966C24.9799 28.6762 26.2749 29.9132 28.0015 29.9132C28.9582 29.9132 29.6582 29.743 30.0432 29.5387V27.235C29.6699 27.3825 27.8265 27.9045 27.8265 26.2249V22.1962H30.0432V19.779H27.8265L27.8382 17.3164Z" fill="#635BFF"/>
<path fill-rule="evenodd" clip-rule="evenodd" d="M19.9517 22.6616C19.9517 22.219 20.325 22.0488 20.9433 22.0488C21.83 22.0488 22.95 22.3098 23.8367 22.7751V20.1082C22.8683 19.7337 21.9117 19.5861 20.9433 19.5861C18.575 19.5861 17 20.7891 17 22.7978C17 25.9299 21.4333 25.4306 21.4333 26.7811C21.4333 27.3031 20.9667 27.4733 20.3133 27.4733C19.345 27.4733 18.1083 27.0875 17.1283 26.5654V29.2664C18.2133 29.7203 19.31 29.9132 20.3133 29.9132C22.74 29.9132 24.4083 28.7443 24.4083 26.713C24.3967 23.3311 19.9517 23.9326 19.9517 22.6616Z" fill="#635BFF"/>
</g>
<defs>
<filter id="filter0_d_397_8801" x="0" y="0" width="76" height="52" filterUnits="userSpaceOnUse" color-interpolation-filters="sRGB">
<feFlood flood-opacity="0" result="BackgroundImageFix"/>
<feColorMatrix in="SourceAlpha" type="matrix" values="0 0 0 0 0 0 0 0 0 0 0 0 0 0 0 0 0 0 127 0" result="hardAlpha"/>
<feOffset dy="2"/>
<feGaussianBlur stdDeviation="4"/>
<feComposite in2="hardAlpha" operator="out"/>
<feColorMatrix type="matrix" values="0 0 0 0 0 0 0 0 0 0 0 0 0 0 0 0 0 0 0.1 0"/>
<feBlend mode="normal" in2="BackgroundImageFix" result="effect1_dropShadow_397_8801"/>
<feBlend mode="normal" in="SourceGraphic" in2="effect1_dropShadow_397_8801" result="shape"/>
</filter>
</defs>
</svg>
