<svg width="16" height="16" viewBox="0 0 16 16" fill="none" xmlns="http://www.w3.org/2000/svg">
<path d="M2.6665 9.2C2.6665 8.07989 2.6665 7.51984 2.88449 7.09202C3.07624 6.71569 3.3822 6.40973 3.75852 6.21799C4.18635 6 4.7464 6 5.8665 6H10.1332C11.2533 6 11.8133 6 12.2412 6.21799C12.6175 6.40973 12.9234 6.71569 13.1152 7.09202C13.3332 7.51984 13.3332 8.0799 13.3332 9.2V9.2C13.3332 10.8802 13.3332 11.7202 13.0062 12.362C12.7186 12.9265 12.2596 13.3854 11.6951 13.673C11.0534 14 10.2133 14 8.53317 14H7.46651C5.78635 14 4.94627 14 4.30453 13.673C3.74005 13.3854 3.2811 12.9265 2.99348 12.362C2.6665 11.7202 2.6665 10.8802 2.6665 9.2V9.2Z" stroke="#868686" stroke-width="1.5"/>
<path d="M10.6666 5.33333V4.66667C10.6666 3.19391 9.47268 2 7.99992 2V2C6.52716 2 5.33325 3.19391 5.33325 4.66667V5.33333" stroke="#868686" stroke-width="1.5" stroke-linecap="round"/>
<circle cx="7.99984" cy="9.99935" r="1.33333" fill="#868686"/>
</svg>
