<svg width="61" height="49" viewBox="0 0 61 49" fill="none" xmlns="http://www.w3.org/2000/svg">
<g clip-path="url(#clip0_58_103)">
<path fill-rule="evenodd" clip-rule="evenodd" d="M0 4C0 1.79086 1.79086 0 4 0H20.3891C22.5982 0 24.3891 1.79086 24.3891 4V45C24.3891 47.2091 22.5982 49 20.3891 49H4C1.79086 49 0 47.2091 0 45V4ZM36.6109 24.5C36.6109 36.6698 45.4405 46.7651 57.0164 48.6749C59.1961 49.0345 61 47.2091 61 45V4C61 1.79086 59.1961 -0.0345259 57.0164 0.325085C45.4405 2.23492 36.6109 12.3302 36.6109 24.5Z" fill="#161616"/>
</g>
<defs>
<clipPath id="clip0_58_103">
<rect width="61" height="49" fill="white"/>
</clipPath>
</defs>
</svg>
