<svg width="53" height="17" viewBox="0 0 53 17" fill="none" xmlns="http://www.w3.org/2000/svg">
<path d="M0 16.12H16V0.12H0V16.12ZM25.178 15.176C24.762 15.176 24.3513 15.144 23.946 15.08C23.5407 15.016 23.1513 14.92 22.778 14.792C22.4047 14.6533 22.0473 14.488 21.706 14.296C21.3647 14.0933 21.0447 13.8587 20.746 13.592L21.818 11.928C22.0527 12.152 22.3087 12.3493 22.586 12.52C22.8633 12.68 23.1513 12.8133 23.45 12.92C23.7487 13.0267 24.0527 13.112 24.362 13.176C24.6713 13.2293 24.9753 13.256 25.274 13.256C25.5833 13.256 25.8553 13.2293 26.09 13.176C26.3353 13.112 26.538 13.0213 26.698 12.904C26.8687 12.7867 26.9967 12.648 27.082 12.488C27.178 12.328 27.226 12.1467 27.226 11.944C27.226 11.688 27.1567 11.4747 27.018 11.304C26.89 11.1227 26.714 10.968 26.49 10.84C26.266 10.712 26.0047 10.6053 25.706 10.52C25.418 10.424 25.114 10.328 24.794 10.232C24.346 10.104 23.8927 9.96 23.434 9.8C22.986 9.62933 22.5807 9.42133 22.218 9.176C21.866 8.92 21.5727 8.60533 21.338 8.232C21.114 7.848 21.002 7.37867 21.002 6.824C21.002 6.29067 21.1087 5.82667 21.322 5.432C21.5353 5.02667 21.8127 4.69067 22.154 4.424C22.506 4.14667 22.9113 3.944 23.37 3.816C23.8287 3.67733 24.3033 3.608 24.794 3.608C25.594 3.608 26.3407 3.73067 27.034 3.976C27.738 4.21067 28.3513 4.552 28.874 5L27.77 6.648C27.3753 6.27467 26.906 5.99733 26.362 5.816C25.818 5.63467 25.3007 5.544 24.81 5.544C24.5327 5.544 24.2873 5.576 24.074 5.64C23.8607 5.69333 23.674 5.77333 23.514 5.88C23.3647 5.98667 23.2473 6.12 23.162 6.28C23.0873 6.42933 23.05 6.6 23.05 6.792C23.05 7.016 23.114 7.208 23.242 7.368C23.37 7.528 23.5407 7.672 23.754 7.8C23.978 7.91733 24.234 8.024 24.522 8.12C24.8207 8.20533 25.1353 8.296 25.466 8.392C25.946 8.52 26.4153 8.66933 26.874 8.84C27.3433 9 27.7593 9.21333 28.122 9.48C28.4847 9.736 28.778 10.056 29.002 10.44C29.2367 10.8133 29.354 11.2773 29.354 11.832C29.354 12.3653 29.242 12.8453 29.018 13.272C28.8047 13.688 28.506 14.04 28.122 14.328C27.7487 14.6053 27.306 14.8187 26.794 14.968C26.2927 15.1067 25.754 15.176 25.178 15.176ZM33.3794 15.16C32.9527 15.16 32.558 15.1013 32.1954 14.984C31.8434 14.856 31.5394 14.6853 31.2834 14.472C31.0274 14.2587 30.8247 13.9973 30.6754 13.688C30.5367 13.3787 30.4674 13.0427 30.4674 12.68V12.568C30.4674 11.672 30.8834 11 31.7154 10.552C32.5474 10.0933 33.806 9.864 35.4914 9.864H36.1634V9.496C36.1634 9.09067 36.014 8.76533 35.7154 8.52C35.4274 8.27467 35.0007 8.152 34.4354 8.152H34.3874C33.9607 8.152 33.5074 8.22667 33.0274 8.376C32.5474 8.52533 32.0994 8.73333 31.6834 9L30.8674 7.56C31.39 7.24 31.9607 6.984 32.5794 6.792C33.198 6.6 33.838 6.504 34.4994 6.504H34.5954C35.6514 6.504 36.4887 6.776 37.1074 7.32C37.726 7.85333 38.0354 8.58933 38.0354 9.528V13.288C38.0354 13.576 38.062 13.8693 38.1154 14.168C38.1794 14.456 38.2487 14.7333 38.3234 15H36.4354C36.382 14.872 36.334 14.7227 36.2914 14.552C36.2594 14.3707 36.2327 14.1893 36.2114 14.008C35.8487 14.36 35.4274 14.6427 34.9474 14.856C34.478 15.0587 33.9554 15.16 33.3794 15.16ZM33.7794 13.56C34.238 13.56 34.6754 13.4693 35.0914 13.288C35.518 13.1067 35.8754 12.856 36.1634 12.536V11.144H35.6034C34.5047 11.144 33.694 11.256 33.1714 11.48C32.6487 11.704 32.3874 12.0347 32.3874 12.472V12.536C32.3874 12.6853 32.4194 12.824 32.4834 12.952C32.5474 13.08 32.6434 13.1867 32.7714 13.272C32.8994 13.3573 33.0434 13.4267 33.2034 13.48C33.374 13.5333 33.566 13.56 33.7794 13.56ZM40.4344 15V3.48H42.4184V15H40.4344ZM48.633 15.144C47.993 15.144 47.4117 15.0427 46.889 14.84C46.3663 14.6373 45.913 14.3547 45.529 13.992C45.1557 13.6293 44.8623 13.1973 44.649 12.696C44.4357 12.184 44.329 11.6187 44.329 11V10.776C44.329 10.168 44.4357 9.60267 44.649 9.08C44.8623 8.55733 45.161 8.10933 45.545 7.736C45.929 7.36267 46.377 7.06933 46.889 6.856C47.4117 6.64267 47.977 6.536 48.585 6.536H48.681C49.257 6.536 49.785 6.632 50.265 6.824C50.7557 7.016 51.177 7.28267 51.529 7.624C51.881 7.96533 52.153 8.37067 52.345 8.84C52.5477 9.29867 52.649 9.81067 52.649 10.376V11.448H46.297V11.464C46.3397 11.7627 46.425 12.04 46.553 12.296C46.6917 12.5413 46.8677 12.7547 47.081 12.936C47.2943 13.1067 47.5397 13.24 47.817 13.336C48.105 13.432 48.4197 13.48 48.761 13.48H48.825C49.3477 13.48 49.8223 13.3787 50.249 13.176C50.6863 12.9627 51.0277 12.7067 51.273 12.408L52.361 13.608C52.169 13.8427 51.9343 14.056 51.657 14.248C51.3903 14.44 51.097 14.6 50.777 14.728C50.4677 14.856 50.1423 14.9573 49.801 15.032C49.4597 15.1067 49.113 15.144 48.761 15.144H48.633ZM46.361 10.12H50.761C50.7397 9.81067 50.6703 9.53333 50.553 9.288C50.4463 9.04267 50.297 8.83467 50.105 8.664C49.9237 8.48267 49.705 8.344 49.449 8.248C49.193 8.14133 48.9157 8.088 48.617 8.088H48.585C48.297 8.088 48.0303 8.136 47.785 8.232C47.5397 8.328 47.3157 8.46667 47.113 8.648C46.921 8.81867 46.761 9.032 46.633 9.288C46.505 9.53333 46.4143 9.81067 46.361 10.12Z" fill="#E00D0D"/>
</svg>
