<svg width="48" height="48" viewBox="0 0 48 48" fill="none" xmlns="http://www.w3.org/2000/svg">
<path fill-rule="evenodd" clip-rule="evenodd" d="M24 48C10.7452 48 0 37.2548 0 24C0 10.7452 10.7452 0 24 0C37.2548 0 48 10.7452 48 24C48 37.2548 37.2548 48 24 48ZM24.7911 37.3525C32.6595 37.3493 39.059 30.9483 39.0621 23.0815C39.0637 19.2683 37.5806 15.6828 34.8862 12.9854C32.1918 10.2879 28.6086 8.80165 24.7909 8.8C16.9248 8.8 10.5228 15.2017 10.5196 23.0702C10.5186 25.5855 11.1757 28.0405 12.4246 30.2048L10.4 37.6L17.9653 35.6155C20.0498 36.7524 22.3967 37.3517 24.7852 37.3525H24.7911Z" fill="#161616"/>
<path fill-rule="evenodd" clip-rule="evenodd" d="M18.3159 33.0324L13.8265 34.21L15.0248 29.8329L14.7428 29.3841C13.5554 27.4956 12.9283 25.3129 12.9292 23.0716C12.9318 16.5316 18.2529 11.2109 24.7958 11.2109C27.964 11.212 30.9422 12.4474 33.1817 14.6895C35.4212 16.9316 36.6538 19.9117 36.6526 23.0812C36.6499 29.6216 31.3289 34.9428 24.7911 34.9428H24.7863C22.6578 34.942 20.5702 34.3702 18.749 33.2895L18.3159 33.0324ZM31.9808 26.4756C31.8917 26.3269 31.654 26.2377 31.2974 26.0591C30.9408 25.8806 29.1877 25.0181 28.8608 24.899C28.534 24.78 28.2961 24.7206 28.0585 25.0774C27.8208 25.4344 27.1374 26.2377 26.9294 26.4756C26.7214 26.7135 26.5133 26.7434 26.1569 26.5649C25.8003 26.3864 24.6513 26.0099 23.2893 24.795C22.2292 23.8494 21.5135 22.6818 21.3055 22.3248C21.0975 21.9678 21.2834 21.7748 21.4619 21.597C21.6223 21.4372 21.8185 21.1804 21.9968 20.9723C22.1751 20.7641 22.2345 20.6153 22.3533 20.3775C22.4722 20.1394 22.4128 19.9312 22.3236 19.7527C22.2345 19.5742 21.5213 17.819 21.2242 17.105C20.9347 16.4097 20.6408 16.5039 20.4219 16.4929C20.2141 16.4825 19.9762 16.4803 19.7385 16.4803C19.5008 16.4803 19.1144 16.5695 18.7876 16.9265C18.4607 17.2835 17.5395 18.1462 17.5395 19.9013C17.5395 21.6565 18.8173 23.3521 18.9956 23.59C19.1739 23.8281 21.51 27.4298 25.0871 28.9744C25.9379 29.3418 26.602 29.5612 27.12 29.7255C27.9742 29.997 28.7516 29.9587 29.3659 29.8668C30.0511 29.7645 31.4756 29.0043 31.7729 28.1714C32.0699 27.3383 32.0699 26.6243 31.9808 26.4756Z" fill="#161616"/>
</svg>
