<svg width="798" height="125" viewBox="0 0 798 125" fill="none" xmlns="http://www.w3.org/2000/svg">
<path d="M37.015 122L0.975 2.99999H27.07L49.425 85.11L73.225 2.99999H98.64L122.44 85.11L144.795 2.99999H170.295L134.255 122H109.01L85.635 40.315L62.005 122H37.015ZM187.681 122V2.99999H212.841V48.135H263.331V2.99999H288.491V122H263.331V71.17H212.841V122H187.681ZM373.266 124.55C364.199 124.55 355.812 122.992 348.106 119.875C340.399 116.702 333.712 112.31 328.046 106.7C322.379 101.09 317.959 94.5167 314.786 86.98C311.669 79.4433 310.111 71.2833 310.111 62.5C310.111 53.66 311.669 45.4717 314.786 37.935C317.959 30.3983 322.379 23.825 328.046 18.215C333.712 12.605 340.399 8.24166 348.106 5.12499C355.812 2.00833 364.199 0.449994 373.266 0.449994C382.332 0.449994 390.691 2.03666 398.341 5.20999C406.047 8.38333 412.734 12.8033 418.401 18.47C424.124 24.1367 428.572 30.7383 431.746 38.275C434.919 45.755 436.506 53.83 436.506 62.5C436.506 71.2833 434.919 79.4433 431.746 86.98C428.572 94.5167 424.124 101.09 418.401 106.7C412.734 112.31 406.047 116.702 398.341 119.875C390.691 122.992 382.332 124.55 373.266 124.55ZM373.266 100.92C378.536 100.92 383.409 100.013 387.886 98.2C392.362 96.3867 396.272 93.8083 399.616 90.465C402.959 87.065 405.537 83.0133 407.351 78.31C409.221 73.6067 410.156 68.3367 410.156 62.5C410.156 54.7367 408.541 47.9933 405.311 42.27C402.081 36.49 397.689 32.0133 392.136 28.84C386.582 25.6667 380.292 24.08 373.266 24.08C368.052 24.08 363.179 24.9867 358.646 26.8C354.169 28.6133 350.259 31.1917 346.916 34.535C343.629 37.8783 341.051 41.93 339.181 46.69C337.367 51.3933 336.461 56.6633 336.461 62.5C336.461 70.2633 338.076 77.035 341.306 82.815C344.536 88.5383 348.927 92.9867 354.481 96.16C360.034 99.3333 366.296 100.92 373.266 100.92ZM515.541 124.55C506.474 124.55 498.088 122.992 490.381 119.875C482.674 116.702 475.988 112.31 470.321 106.7C464.654 101.09 460.234 94.5167 457.061 86.98C453.944 79.4433 452.386 71.2833 452.386 62.5C452.386 53.66 453.944 45.4717 457.061 37.935C460.234 30.3983 464.654 23.825 470.321 18.215C475.988 12.605 482.674 8.24166 490.381 5.12499C498.088 2.00833 506.474 0.449994 515.541 0.449994C524.608 0.449994 532.966 2.03666 540.616 5.20999C548.323 8.38333 555.009 12.8033 560.676 18.47C566.399 24.1367 570.848 30.7383 574.021 38.275C577.194 45.755 578.781 53.83 578.781 62.5C578.781 71.2833 577.194 79.4433 574.021 86.98C570.848 94.5167 566.399 101.09 560.676 106.7C555.009 112.31 548.323 116.702 540.616 119.875C532.966 122.992 524.608 124.55 515.541 124.55ZM515.541 100.92C520.811 100.92 525.684 100.013 530.161 98.2C534.638 96.3867 538.548 93.8083 541.891 90.465C545.234 87.065 547.813 83.0133 549.626 78.31C551.496 73.6067 552.431 68.3367 552.431 62.5C552.431 54.7367 550.816 47.9933 547.586 42.27C544.356 36.49 539.964 32.0133 534.411 28.84C528.858 25.6667 522.568 24.08 515.541 24.08C510.328 24.08 505.454 24.9867 500.921 26.8C496.444 28.6133 492.534 31.1917 489.191 34.535C485.904 37.8783 483.326 41.93 481.456 46.69C479.643 51.3933 478.736 56.6633 478.736 62.5C478.736 70.2633 480.351 77.035 483.581 82.815C486.811 88.5383 491.203 92.9867 496.756 96.16C502.309 99.3333 508.571 100.92 515.541 100.92ZM600.396 122V2.99999H646.551C655.278 2.99999 663.013 4.52999 669.756 7.58999C676.5 10.5933 681.798 14.985 685.651 20.765C689.505 26.4883 691.431 33.3733 691.431 41.42C691.431 49.6367 689.646 56.6067 686.076 62.33C682.506 67.9967 677.321 72.3317 670.521 75.335C663.778 78.2817 655.59 79.755 645.956 79.755H625.556V122H600.396ZM625.556 58.59H645.531C652.048 58.59 657.12 57.2583 660.746 54.595C664.43 51.9317 666.271 47.71 666.271 41.93C666.271 36.0933 664.401 31.7583 660.661 28.925C656.921 26.0917 651.935 24.675 645.701 24.675H625.556V58.59ZM751.427 124.55C742.643 124.55 734.115 123.275 725.842 120.725C717.568 118.175 710.57 114.463 704.847 109.59L716.832 90.72C719.438 93.3267 722.64 95.565 726.437 97.435C730.29 99.305 734.37 100.75 738.677 101.77C743.04 102.733 747.318 103.215 751.512 103.215C757.972 103.215 763.213 102.082 767.237 99.815C771.26 97.5483 773.272 94.2333 773.272 89.87C773.272 86.3567 771.855 83.4383 769.022 81.115C766.188 78.735 760.918 76.4683 753.212 74.315L742.332 71.255C730.375 67.9117 721.762 63.3783 716.492 57.655C711.222 51.9317 708.587 44.99 708.587 36.83C708.587 31.5033 709.692 26.63 711.902 22.21C714.112 17.79 717.2 13.965 721.167 10.735C725.19 7.505 729.922 5.01166 735.362 3.25499C740.858 1.44166 746.808 0.534998 753.212 0.534998C761.882 0.534998 769.928 1.81 777.352 4.35999C784.832 6.85333 790.895 10.2817 795.542 14.645L783.132 32.92C780.865 30.6533 778.117 28.6983 774.887 27.055C771.713 25.4117 768.257 24.1367 764.517 23.23C760.777 22.2667 757.008 21.785 753.212 21.785C749.132 21.785 745.533 22.3517 742.417 23.485C739.357 24.5617 736.977 26.1483 735.277 28.245C733.577 30.285 732.727 32.75 732.727 35.64C732.727 37.85 733.322 39.7483 734.512 41.335C735.758 42.865 737.827 44.31 740.717 45.67C743.663 47.03 747.687 48.4467 752.787 49.92L764.007 53.235C775.793 56.6917 784.35 61.0833 789.677 66.41C795.003 71.7367 797.667 78.65 797.667 87.15C797.667 94.5167 795.797 101.033 792.057 106.7C788.373 112.31 783.047 116.702 776.077 119.875C769.163 122.992 760.947 124.55 751.427 124.55Z" fill="#161616"/>
</svg>
