<svg width="1501" height="234" viewBox="0 0 1501 234" fill="none" xmlns="http://www.w3.org/2000/svg">
<path d="M68.44 229L0.6 4.99998H49.72L91.8 159.56L136.6 4.99998H184.44L229.24 159.56L271.32 4.99998H319.32L251.48 229H203.96L159.96 75.24L115.48 229H68.44ZM352.048 229V4.99998H399.408V89.96H494.448V4.99998H541.808V229H494.448V133.32H399.408V229H352.048ZM701.383 233.8C684.316 233.8 668.529 230.867 654.023 225C639.516 219.027 626.929 210.76 616.263 200.2C605.596 189.64 597.276 177.267 591.303 163.08C585.436 148.893 582.503 133.533 582.503 117C582.503 100.36 585.436 84.9467 591.303 70.76C597.276 56.5733 605.596 44.2 616.263 33.64C626.929 23.08 639.516 14.8667 654.023 8.99998C668.529 3.13332 684.316 0.199989 701.383 0.199989C718.449 0.199989 734.183 3.18666 748.583 9.15999C763.089 15.1333 775.676 23.4533 786.343 34.12C797.116 44.7867 805.489 57.2133 811.463 71.4C817.436 85.48 820.423 100.68 820.423 117C820.423 133.533 817.436 148.893 811.463 163.08C805.489 177.267 797.116 189.64 786.343 200.2C775.676 210.76 763.089 219.027 748.583 225C734.183 230.867 718.449 233.8 701.383 233.8ZM701.383 189.32C711.303 189.32 720.476 187.613 728.903 184.2C737.329 180.787 744.689 175.933 750.983 169.64C757.276 163.24 762.129 155.613 765.543 146.76C769.063 137.907 770.823 127.987 770.823 117C770.823 102.387 767.783 89.6933 761.703 78.92C755.623 68.04 747.356 59.6133 736.903 53.64C726.449 47.6667 714.609 44.68 701.383 44.68C691.569 44.68 682.396 46.3867 673.863 49.8C665.436 53.2133 658.076 58.0667 651.783 64.36C645.596 70.6533 640.743 78.28 637.223 87.24C633.809 96.0933 632.103 106.013 632.103 117C632.103 131.613 635.143 144.36 641.223 155.24C647.303 166.013 655.569 174.387 666.023 180.36C676.476 186.333 688.263 189.32 701.383 189.32ZM969.195 233.8C952.128 233.8 936.342 230.867 921.835 225C907.328 219.027 894.742 210.76 884.075 200.2C873.408 189.64 865.088 177.267 859.115 163.08C853.248 148.893 850.315 133.533 850.315 117C850.315 100.36 853.248 84.9467 859.115 70.76C865.088 56.5733 873.408 44.2 884.075 33.64C894.742 23.08 907.328 14.8667 921.835 8.99998C936.342 3.13332 952.128 0.199989 969.195 0.199989C986.262 0.199989 1002 3.18666 1016.4 9.15999C1030.9 15.1333 1043.49 23.4533 1054.16 34.12C1064.93 44.7867 1073.3 57.2133 1079.28 71.4C1085.25 85.48 1088.24 100.68 1088.24 117C1088.24 133.533 1085.25 148.893 1079.28 163.08C1073.3 177.267 1064.93 189.64 1054.16 200.2C1043.49 210.76 1030.9 219.027 1016.4 225C1002 230.867 986.262 233.8 969.195 233.8ZM969.195 189.32C979.115 189.32 988.288 187.613 996.715 184.2C1005.14 180.787 1012.5 175.933 1018.8 169.64C1025.09 163.24 1029.94 155.613 1033.36 146.76C1036.88 137.907 1038.64 127.987 1038.64 117C1038.64 102.387 1035.6 89.6933 1029.52 78.92C1023.44 68.04 1015.17 59.6133 1004.72 53.64C994.262 47.6667 982.422 44.68 969.195 44.68C959.382 44.68 950.208 46.3867 941.675 49.8C933.248 53.2133 925.888 58.0667 919.595 64.36C913.408 70.6533 908.555 78.28 905.035 87.24C901.622 96.0933 899.915 106.013 899.915 117C899.915 131.613 902.955 144.36 909.035 155.24C915.115 166.013 923.382 174.387 933.835 180.36C944.288 186.333 956.075 189.32 969.195 189.32ZM1128.92 229V4.99998H1215.8C1232.23 4.99998 1246.79 7.87999 1259.48 13.64C1272.18 19.2933 1282.15 27.56 1289.4 38.44C1296.66 49.2133 1300.28 62.1733 1300.28 77.32C1300.28 92.7867 1296.92 105.907 1290.2 116.68C1283.48 127.347 1273.72 135.507 1260.92 141.16C1248.23 146.707 1232.82 149.48 1214.68 149.48H1176.28V229H1128.92ZM1176.28 109.64H1213.88C1226.15 109.64 1235.7 107.133 1242.52 102.12C1249.46 97.1067 1252.92 89.16 1252.92 78.28C1252.92 67.2933 1249.4 59.1333 1242.36 53.8C1235.32 48.4667 1225.94 45.8 1214.2 45.8H1176.28V109.64ZM1413.22 233.8C1396.68 233.8 1380.63 231.4 1365.06 226.6C1349.48 221.8 1336.31 214.813 1325.54 205.64L1348.1 170.12C1353 175.027 1359.03 179.24 1366.18 182.76C1373.43 186.28 1381.11 189 1389.22 190.92C1397.43 192.733 1405.48 193.64 1413.38 193.64C1425.54 193.64 1435.4 191.507 1442.98 187.24C1450.55 182.973 1454.34 176.733 1454.34 168.52C1454.34 161.907 1451.67 156.413 1446.34 152.04C1441 147.56 1431.08 143.293 1416.58 139.24L1396.1 133.48C1373.59 127.187 1357.38 118.653 1347.46 107.88C1337.54 97.1067 1332.58 84.04 1332.58 68.68C1332.58 58.6533 1334.66 49.48 1338.82 41.16C1342.98 32.84 1348.79 25.64 1356.26 19.56C1363.83 13.48 1372.74 8.78666 1382.98 5.47999C1393.32 2.06666 1404.52 0.359997 1416.58 0.359997C1432.9 0.359997 1448.04 2.75999 1462.02 7.55999C1476.1 12.2533 1487.51 18.7067 1496.26 26.92L1472.9 61.32C1468.63 57.0533 1463.46 53.3733 1457.38 50.28C1451.4 47.1867 1444.9 44.7867 1437.86 43.08C1430.82 41.2667 1423.72 40.36 1416.58 40.36C1408.9 40.36 1402.12 41.4267 1396.26 43.56C1390.5 45.5867 1386.02 48.5733 1382.82 52.52C1379.62 56.36 1378.02 61 1378.02 66.44C1378.02 70.6 1379.14 74.1733 1381.38 77.16C1383.72 80.04 1387.62 82.76 1393.06 85.32C1398.6 87.88 1406.18 90.5467 1415.78 93.32L1436.9 99.56C1459.08 106.067 1475.19 114.333 1485.22 124.36C1495.24 134.387 1500.26 147.4 1500.26 163.4C1500.26 177.267 1496.74 189.533 1489.7 200.2C1482.76 210.76 1472.74 219.027 1459.62 225C1446.6 230.867 1431.14 233.8 1413.22 233.8Z" fill="#161616"/>
</svg>
