<svg width="107" height="79" viewBox="0 0 107 79" fill="none" xmlns="http://www.w3.org/2000/svg">
<path d="M24.0959 79C17.0182 79 11.2129 76.6312 6.68004 71.8936C2.22668 67.077 0 60.6812 0 52.7062C0 46.4683 1.4712 40.3093 4.4136 34.2294C7.356 28.0705 11.7696 22.109 17.6544 16.3448C23.5392 10.5807 30.935 5.13244 39.8417 0L50.5775 14.8051C43.977 17.6477 38.0922 21.2799 32.9231 25.7016C27.8335 30.0445 24.1754 34.3478 21.9487 38.6117C26.3226 38.3748 30.2988 39.046 33.8774 40.6252C37.456 42.1254 40.3188 44.3758 42.466 47.3763C44.6132 50.2979 45.6867 53.8511 45.6867 58.036C45.6867 64.2739 43.6589 69.3273 39.6031 73.1964C35.6269 77.0655 30.4578 79 24.0959 79ZM80.5184 79C73.4407 79 67.6355 76.6312 63.1026 71.8936C58.6492 67.077 56.4225 60.6812 56.4225 52.7062C56.4225 46.4683 57.8937 40.3093 60.8361 34.2294C63.7785 28.0705 68.1921 22.109 74.0769 16.3448C79.9617 10.5807 87.3575 5.13244 96.2642 0L107 14.8051C100.399 17.6477 94.5147 21.2799 89.3456 25.7016C84.256 30.0445 80.5979 34.3478 78.3712 38.6117C82.7451 38.3748 86.7213 39.046 90.2999 40.6252C93.8785 42.1254 96.7414 44.3758 98.8885 47.3763C101.036 50.2979 102.109 53.8511 102.109 58.036C102.109 64.2739 100.081 69.3273 96.0256 73.1964C92.0494 77.0655 86.8803 79 80.5184 79Z" fill="#161616"/>
</svg>
